<svg width="100" height="100" viewBox="0 0 100 100" fill="none" xmlns="http://www.w3.org/2000/svg">
<rect x="0.757576" y="0.757576" width="98.4848" height="98.4848" rx="49.2424" stroke="#00B1B2" stroke-width="1.51515"/>
<path d="M32.9546 46.7217L24.4319 41.8609V32.1364L32.9546 27.2728L41.4773 32.1364V41.8609L32.9546 46.7217ZM32.9546 43.466L38.6364 40.233V33.7643L32.9546 30.5285L27.2728 33.7643V40.233L32.9546 43.466ZM62.1307 46.9575V43.6847L69.8864 48.1989V66.4461L54.2614 75.5682L38.6364 66.4432V48.1989L46.3921 43.6847V46.9575L41.4773 49.8268V64.8239L54.2614 72.2387L67.0455 64.8239V49.8239L62.1307 46.9575ZM52.841 55.6819V24.4319H75.5682L70.8694 31.5342L75.5682 38.6364H55.6819V55.6819H52.841Z" fill="#00B1B2"/>
</svg>
