<svg width="100" height="100" viewBox="0 0 100 100" fill="none" xmlns="http://www.w3.org/2000/svg">
<rect x="0.757576" y="0.757576" width="98.4848" height="98.4848" rx="49.2424" stroke="#00B1B2" stroke-width="1.51515"/>
<path d="M73.5625 32.7812H57.25C55.7515 32.7819 54.2821 33.1955 53.0032 33.9764C51.7242 34.7574 50.6852 35.8756 50 37.2083C49.3148 35.8756 48.2758 34.7574 46.9968 33.9764C45.7179 33.1955 44.2485 32.7819 42.75 32.7812H26.4375C26.1971 32.7812 25.9666 32.8767 25.7967 33.0467C25.6267 33.2166 25.5312 33.4471 25.5312 33.6875V66.3125C25.5312 66.5529 25.6267 66.7834 25.7967 66.9533C25.9666 67.1233 26.1971 67.2188 26.4375 67.2188H42.75C44.4325 67.2188 46.046 67.8871 47.2357 69.0768C48.4254 70.2665 49.0938 71.88 49.0938 73.5625C49.0938 73.8029 49.1892 74.0334 49.3592 74.2033C49.5291 74.3733 49.7596 74.4688 50 74.4688C50.2404 74.4688 50.4709 74.3733 50.6408 74.2033C50.8108 74.0334 50.9062 73.8029 50.9062 73.5625C50.9062 71.88 51.5746 70.2665 52.7643 69.0768C53.954 67.8871 55.5675 67.2188 57.25 67.2188H73.5625C73.8029 67.2188 74.0334 67.1233 74.2033 66.9533C74.3733 66.7834 74.4688 66.5529 74.4688 66.3125V33.6875C74.4688 33.4471 74.3733 33.2166 74.2033 33.0467C74.0334 32.8767 73.8029 32.7812 73.5625 32.7812ZM42.75 65.4062H27.3438V34.5938H42.75C44.4325 34.5938 46.046 35.2621 47.2357 36.4518C48.4254 37.6415 49.0938 39.255 49.0938 40.9375V68.4422C48.3306 67.4941 47.3645 66.7292 46.2666 66.2038C45.1688 65.6784 43.9671 65.4059 42.75 65.4062ZM72.6562 65.4062H57.25C56.0327 65.4063 54.831 65.6793 53.7332 66.205C52.6353 66.7308 51.6693 67.4961 50.9062 68.4445V40.9375C50.9062 39.255 51.5746 37.6415 52.7643 36.4518C53.954 35.2621 55.5675 34.5938 57.25 34.5938H72.6562V65.4062Z" fill="#00B1B2"/>
</svg>
